<?xml version="1.0" encoding="utf-8"?>
<!-- Generator: Adobe Illustrator 19.0.0, SVG Export Plug-In . SVG Version: 6.00 Build 0)  -->
<svg version="1.1" id="Layer_1" xmlns="http://www.w3.org/2000/svg" xmlns:xlink="http://www.w3.org/1999/xlink" x="0px" y="0px"
	 viewBox="0 0 204 228.4" style="enable-background:new 0 0 204 228.4;" xml:space="preserve">
<style type="text/css">
	.st0{clip-path:url(#XMLID_165_);}
	.st1{fill:#479ED7;}
	.st2{fill:#754C43;}
	.st3{fill:#C1BA32;}
	.st4{fill:#F27274;}
	.st5{fill:#DAAB88;}
	.st6{fill:#ECBB92;}
	.st7{fill:#FFFFFF;}
	.st8{fill:#221F1F;}
	.st9{fill:#E6E6E6;}
	.st10{fill:#F27457;}
	.st11{fill:#ED413D;}
	.st12{fill:#FBC71E;}
	.st13{fill:#A6ACB2;}
	.st14{fill:#F1F1F1;}
</style>
<g id="XMLID_54_">
	<g id="XMLID_70_">
		<defs>
			<circle id="XMLID_12_" cx="101.6" cy="122.8" r="90.3"/>
		</defs>
		<use xlink:href="#XMLID_12_"  style="overflow:visible;fill:#45BCA0;"/>
		<clipPath id="XMLID_165_">
			<use xlink:href="#XMLID_12_"  style="overflow:visible;"/>
		</clipPath>
		<g id="XMLID_72_" class="st0">
			<circle id="XMLID_45_" class="st1" cx="101.6" cy="122.8" r="90.3"/>
			<g id="XMLID_73_">
				<path id="XMLID_44_" class="st2" d="M145.7,156.8c0,21.1-14.3,38.2-31.9,38.2H89.5c-17.6,0-31.9-17.1-31.9-38.2V63.7
					c0-21.1,14.3-38.2,31.9-38.2h24.2c17.6,0,31.9,17.1,31.9,38.2V156.8z"/>
				<circle id="XMLID_43_" class="st3" cx="61.5" cy="116.9" r="5.3"/>
				<circle id="XMLID_42_" class="st3" cx="141.8" cy="116.9" r="5.3"/>
				<path id="XMLID_41_" class="st4" d="M117.4,157.4h-15.6h-0.2H86c0,0-21.7,27.5-49.9,30.8V216h65.4h0.2h65.4v-27.8
					C139,185,117.4,157.4,117.4,157.4z"/>
				<rect id="XMLID_40_" x="86" y="129.3" class="st5" width="31.5" height="52.8"/>
				<path id="XMLID_39_" class="st6" d="M138.9,108c0,27.9-29.6,45.3-29.6,45.3c-4.2,3.3-11.1,3.3-15.3,0c0,0-29.6-17.4-29.6-45.3
					V60c0-5.1,13.7-7.2,19.2-7.2l18.1-4.4l23.8,6.5c5.4,0,13.4,0,13.4,5.2V108z"/>
				<path id="XMLID_38_" class="st7" d="M132.9,95.2c0,5.8-5,10.6-11.1,10.6H81.5c-6.1,0-11.1-4.7-11.1-10.6l0,0
					c0-5.8,5-10.6,11.1-10.6h40.2C127.9,84.6,132.9,89.3,132.9,95.2L132.9,95.2z"/>
				<g id="XMLID_99_">
					<g id="XMLID_109_">
						<g id="XMLID_111_">
							<circle id="XMLID_37_" class="st8" cx="84.6" cy="97.9" r="3.7"/>
							<g id="XMLID_112_">
								<g id="XMLID_36_">
									<path id="XMLID_53_" class="st8" d="M79.1,94.7l-0.5-0.1c-0.1,0-2-0.6-2.5-3.1l1.6-0.3c0.2,0.9,0.6,1.4,0.9,1.7
										c1.6-1.5,3.6-2.3,5.8-2.3c2.4,0,4.6,1,6.2,2.7l-1.2,1.1c-1.3-1.4-3.1-2.2-5.1-2.2c-1.9,0-3.7,0.8-5.1,2.2L79.1,94.7z"/>
								</g>
								<g id="XMLID_35_">
									<path id="XMLID_52_" class="st8" d="M77.8,95.9c-0.1,0-2.1-0.1-3.2-2.4l1.5-0.7c0.7,1.4,1.8,1.5,1.8,1.5L77.8,95.9z"/>
								</g>
							</g>
						</g>
						<circle id="XMLID_34_" class="st7" cx="85.8" cy="96.8" r="1.2"/>
					</g>
					<g id="XMLID_100_">
						<g id="XMLID_102_">
							<circle id="XMLID_33_" class="st8" cx="118.8" cy="97.9" r="3.7"/>
							<g id="XMLID_103_">
								<g id="XMLID_32_">
									<path id="XMLID_51_" class="st8" d="M124.2,94.7l-0.3-0.4c-1.3-1.4-3.1-2.2-5.1-2.2c-1.9,0-3.7,0.8-5.1,2.2l-1.2-1.1
										c1.6-1.7,3.9-2.7,6.2-2.7c2.2,0,4.2,0.8,5.8,2.3c0.3-0.2,0.8-0.7,0.9-1.7l1.6,0.3c-0.5,2.5-2.4,3.1-2.5,3.1L124.2,94.7z"/>
								</g>
								<g id="XMLID_31_">
									<path id="XMLID_49_" class="st8" d="M125.5,95.9l-0.1-1.6c0,0,1.1-0.1,1.8-1.5l1.5,0.7C127.6,95.8,125.6,95.9,125.5,95.9z"
										/>
								</g>
							</g>
						</g>
						<circle id="XMLID_30_" class="st7" cx="117.5" cy="96.8" r="1.2"/>
					</g>
				</g>
				<path id="XMLID_29_" class="st9" d="M81.5,86.6h40.2c5.8,0,10.5,4.2,11,9.6c0-0.3,0-0.7,0-1c0-5.8-5-10.6-11.1-10.6H81.5
					c-6.1,0-11.1,4.7-11.1,10.6c0,0.3,0,0.7,0,1C71,90.8,75.8,86.6,81.5,86.6z"/>
				<g id="XMLID_89_">
					<g id="XMLID_94_">
						<circle id="XMLID_28_" class="st10" cx="81.3" cy="115.9" r="1.1"/>
						<circle id="XMLID_27_" class="st10" cx="77.6" cy="122.1" r="1.1"/>
						<circle id="XMLID_26_" class="st10" cx="74.3" cy="114.5" r="1.1"/>
					</g>
					<g id="XMLID_90_">
						<circle id="XMLID_25_" class="st10" cx="122" cy="115.9" r="1.1"/>
						<circle id="XMLID_24_" class="st10" cx="125.7" cy="122.1" r="1.1"/>
						<circle id="XMLID_23_" class="st10" cx="129" cy="114.5" r="1.1"/>
					</g>
				</g>
				<g id="XMLID_22_">
					<path id="XMLID_10_" class="st7" d="M87,126c0.2,7.9,6.7,14.3,14.7,14.3c8,0,14.5-6.4,14.7-14.3H87z"/>
					<path id="XMLID_11_" class="st11" d="M101.7,141.8c-8.8,0-16-6.9-16.2-15.8c0-0.4,0.1-0.8,0.4-1.1c0.3-0.3,0.7-0.5,1.1-0.5
						h29.4c0.4,0,0.8,0.2,1.1,0.5c0.3,0.3,0.4,0.7,0.4,1.1C117.6,134.9,110.5,141.8,101.7,141.8z M88.6,127.5
						c0.9,6.4,6.4,11.3,13,11.3c6.7,0,12.1-4.8,13-11.3H88.6z"/>
				</g>
				<path id="XMLID_21_" class="st2" d="M140.5,84.6c0,0-38.8-4.4-38.8-29.5c0,0-7.5,23.8-38.8,23.8V48.6l38.8-6.1l38.8,12V84.6z"/>
				<g id="XMLID_80_">
					<path id="XMLID_20_" class="st12" d="M61.5,90.5c-4.8,0-8.6,3.9-8.6,8.6s3.9,8.6,8.6,8.6V90.5z"/>
					<path id="XMLID_19_" class="st6" d="M141.8,90.5c4.8,0,8.6,3.9,8.6,8.6s-3.9,8.6-8.6,8.6V90.5z"/>
				</g>
				<rect id="XMLID_18_" x="99" y="13.6" class="st8" width="5" height="19"/>
				<circle id="XMLID_17_" class="st8" cx="101.7" cy="12.3" r="6.6"/>
				<path id="XMLID_16_" class="st13" d="M121.8,105.7H81.5c-5.8,0-10.5-4.2-11-9.6c0,0.3,0,0.7,0,1c0,5.8,5,10.6,11.1,10.6h40.2
					c6.1,0,11.1-4.7,11.1-10.6c0-0.3,0-0.7,0-1C132.3,101.5,127.5,105.7,121.8,105.7z"/>
				<path id="XMLID_15_" class="st5" d="M132.9,182.8l-15.6-17.6H86l-15.7,17.6c0,11.6,14,21,31.3,21
					C118.9,203.7,132.9,194.4,132.9,182.8L132.9,182.8z"/>
				<path id="XMLID_14_" class="st9" d="M105,105.7v-8.1c0-1.8-1.4-3.2-3.2-3.2s-3.2,1.4-3.2,3.2v8.1H105z"/>
				<path id="XMLID_13_" class="st5" d="M98.6,107.7v8.1c0,1.8,1.4,3.2,3.2,3.2s3.2-1.4,3.2-3.2v-8.1H98.6z"/>
			</g>
		</g>
	</g>
	<g id="XMLID_66_">
		<path id="XMLID_50_" class="st2" d="M105.9,42.6c10.1,0.1,20,1.3,29.9,3.3c2.3,0.5,4.6,1,6.9,1.6c-5.1-13-16.1-22-28.9-22H89.5
			c-13,0-24.1,9.3-29.1,22.6C75.1,43.7,90.8,42.5,105.9,42.6z"/>
		<rect id="XMLID_9_" x="99" y="13.6" class="st8" width="5" height="19"/>
		<circle id="XMLID_8_" class="st8" cx="101.7" cy="12.3" r="6.6"/>
	</g>
	<g id="XMLID_60_">
		<path id="XMLID_7_" class="st14" d="M180.5,77.6c-10.1,0-18.2,7.2-18.2,16c0,3,0.9,5.8,2.6,8.2l-5,7.4l9-3.2
			c3.1,2.3,7.2,3.7,11.6,3.7c10.1,0,18.2-7.2,18.2-16S190.5,77.6,180.5,77.6z"/>
		<g id="XMLID_61_">
			<circle id="XMLID_6_" class="st13" cx="173.1" cy="93.6" r="1.8"/>
			<circle id="XMLID_5_" class="st13" cx="187.6" cy="93.6" r="1.8"/>
			<circle id="XMLID_4_" class="st13" cx="180.3" cy="93.6" r="1.8"/>
		</g>
	</g>
	<g id="XMLID_55_">
		<circle id="XMLID_3_" class="st7" cx="140.6" cy="207.8" r="10.5"/>
		<g id="XMLID_56_">
			<path id="XMLID_2_" class="st11" d="M140.6,213.5L140.6,213.5c-0.9,0-1.6-0.7-1.6-1.6v-8.2c0-0.9,0.7-1.6,1.6-1.6h0
				c0.9,0,1.6,0.7,1.6,1.6v8.2C142.2,212.8,141.5,213.5,140.6,213.5z"/>
			<path id="XMLID_1_" class="st11" d="M134.9,207.8L134.9,207.8c0-0.9,0.7-1.6,1.6-1.6h8.2c0.9,0,1.6,0.7,1.6,1.6l0,0
				c0,0.9-0.7,1.6-1.6,1.6h-8.2C135.6,209.4,134.9,208.7,134.9,207.8z"/>
		</g>
	</g>
</g>
</svg>
